<?xml version="1.0" standalone="no"?><!DOCTYPE svg PUBLIC "-//W3C//DTD SVG 1.1//EN" "http://www.w3.org/Graphics/SVG/1.1/DTD/svg11.dtd"><svg t="1759836198610" class="icon" viewBox="0 0 1024 1024" version="1.1" xmlns="http://www.w3.org/2000/svg" p-id="11593" xmlns:xlink="http://www.w3.org/1999/xlink" width="16" height="16"><path d="M880.32 679.2704a12.8 12.8 0 0 1 0 25.6H622.2464a370.6624 370.6624 0 0 0 16.96 49.8432 12.3648 12.3648 0 0 1 6.4384-1.9968h136.5376a12.8128 12.8128 0 0 1 0 25.6H649.7152c16.5248 34.4576 32.704 58.3552 33.024 58.8288a12.7744 12.7744 0 0 1 2.24 7.232V921.6a12.8 12.8 0 0 1-12.8 12.8h-307.2a12.8 12.8 0 0 1-12.8-12.8v-77.2224a12.8 12.8 0 0 1 2.3296-7.3728c0.5248-0.7552 43.4944-62.6176 60.8896-132.1344h-116.4416a12.8 12.8 0 1 1 0-25.6h121.4208a201.344 201.344 0 0 0 2.2272-24.6656c0.7424-39.1296-15.3344-171.7504-20.2368-211.136H368.896a12.8 12.8 0 0 1-12.8-12.8v-85.5168a12.8 12.8 0 0 1 12.8-12.8h68.4544v-85.7216H416.384a12.8 12.8 0 1 1 0-25.6h36.5952l18.7392-31.5264v-12.2112h-9.92a12.8 12.8 0 1 1 0-25.6h43.9808V102.4a12.8 12.8 0 1 1 25.6 0v49.2928h43.9808a12.8128 12.8128 0 0 1 0 25.6h-9.92v12.2112l18.7392 31.5264h36.5824a12.8 12.8 0 1 1 0 25.6H599.808v85.7216h68.4544a12.8 12.8 0 0 1 12.8 12.8v85.5168a12.8 12.8 0 0 1-12.8 12.8h-33.536c-4.992 39.3344-21.4144 171.9296-20.1856 210.9952 0.2688 8.448 1.2672 16.9984 2.6112 25.5488 1.1648-0.3584 2.3296-0.7424 3.6096-0.7424h259.5584z m-581.376 73.4464a12.8 12.8 0 1 1 0 25.6h-106.9312a12.8 12.8 0 1 1 0-25.6h106.944zM377.792 908.8h281.6v-49.1136h-281.6V908.8z m72.3712-465.3312h-21.9648c1.0112 8.2176 2.3808 19.4304 3.9296 32.4736h172.7744c1.5872-13.0432 2.9952-24.256 4.0448-32.4736H450.1504z m-68.4544-51.6096v26.0096H437.3504v-26.0096H381.696z m-0.0128-25.6h55.6672v-8.3072h-55.6672v8.3072z m81.2672-33.92h111.2448v-85.7088h-111.2448v85.7088z m136.8448 33.92h55.6672v-8.3072h-55.6672v8.3072z m-136.8448 0h111.2448v-8.3072h-111.2448v8.3072z m0 51.6096h111.2448v-26.0096h-111.2448v26.0096z m160.5248 0h31.9872v-26.0096H599.808v26.0096h23.6672zM448.2048 655.0912c-1.3696 72.256-41.1904 146.0864-61.3504 178.9952h263.7056c-19.8144-33.024-59.4176-107.4816-61.6192-178.8416-0.8576-28.1088 6.4896-98.7136 12.9024-153.7024H435.1104c6.3104 54.9504 13.6192 125.4912 13.0944 153.5488z m91.6352-477.7984h-42.5216v15.7312c0 2.304-0.6272 4.5568-1.8048 6.5536l-11.2128 18.8544h68.5568l-11.2128-18.8544a12.8896 12.8896 0 0 1-1.8048-6.5536v-15.7312z m-31.872 467.6736a6.4 6.4 0 0 1-6.4-6.4v-32.768a6.4 6.4 0 0 1 6.4-6.4h21.1968a6.4 6.4 0 0 1 6.4 6.4v32.768a6.4 6.4 0 0 1-6.4 6.4h-21.184zM166.4 668.6464a12.8 12.8 0 1 1 0.0128-25.6 12.8 12.8 0 0 1 0 25.6z m38.4-12.8c0-21.1712-17.2288-38.4-38.4-38.4s-38.4 17.2288-38.4 38.4 17.2288 38.4 38.4 38.4 38.4-17.2288 38.4-38.4" fill="#212121" p-id="11594"></path></svg>