<?xml version="1.0" standalone="no"?><!DOCTYPE svg PUBLIC "-//W3C//DTD SVG 1.1//EN" "http://www.w3.org/Graphics/SVG/1.1/DTD/svg11.dtd"><svg t="1759653744915" class="icon" viewBox="0 0 1024 1024" version="1.1" xmlns="http://www.w3.org/2000/svg" p-id="39866" xmlns:xlink="http://www.w3.org/1999/xlink" width="16" height="16"><path d="M877.882223 207.992725a179.960831 179.960831 0 0 1-64.333601-59.251592c-1.004852-19.946881-8.743364-36.070706-23.215536-48.394576-3.187805-2.748904-5.255258-6.006009-5.775009-9.124514-2.009703-11.168867 2.379304-15.627174 13.167021-13.398021 2.113653 0.427351 5.509359 2.691154 9.240014 6.121509l21.483034 19.866031c2.483254 2.275354 6.50266 2.079003 9.240014-0.462 15.939025-14.472173 12.73967-28.182044-9.586515-41.118065-3.638256-2.032803-6.07531-5.151308-6.58351-8.431513-1.155002-7.623012 1.420652-12.90137 7.738512-15.823525a9.078314 9.078314 0 0 1 10.164016 1.732503l21.367533 20.559032c2.910605 2.772004 6.52576 3.927006 9.355515 3.003005 9.078314-3.083855 13.860022-9.159164 14.322022-18.249029 0.15015-2.240704-1.640103-5.717259-4.735507-9.240014l-18.249029-21.252033a5.405408 5.405408 0 0 1-1.258952-4.504507 7.091711 7.091711 0 0 1 2.644954-4.389007c12.77432-10.314166 23.100036-6.46801 30.954049 11.550018 1.270502 3.003005 4.504507 4.666207 7.623012 3.927006 42.966067-9.933016 69.184608 33.495052 96.558151 60.060094 7.311161 7.080161 8.616313 17.902528 3.927006 32.455551a10.025416 10.025416 0 0 0 1.848003 9.817515l18.364529 21.367533a8.916614 8.916614 0 0 1 1.386002 9.702016c-18.826529 36.613557-34.534554-47.701575-63.178599-2.541004-1.697853 2.806654-1.131902 6.56041 1.386002 9.124514l19.866031 20.905533c2.887505 3.026105 4.227307 6.791411 3.580506 10.048515-0.773851 3.696006-2.541004 6.54886-5.313009 8.547014-2.956805 1.998153-7.080161 1.674753-10.164015-0.808502l-26.565042-21.367533c-3.234005-2.668054-6.872261-3.880806-9.702015-3.234005-8.246713 1.697853-13.675221 6.31786-16.285526 13.860022-1.039502 3.130055 0.24255 6.814511 3.234005 9.240014 4.389007 3.580506 46.893073 45.507071 12.58952 41.580065-3.141605-0.346501-6.35251-2.506354-8.778014-5.890509-10.787717-15.557874-26.218541-24.220388-46.315572-25.987541z" fill="#664125" p-id="39867"></path><path d="M813.548622 148.741133a179.960831 179.960831 0 0 0 64.333601 59.251592l-233.541365 252.367895-56.364088 61.792597c-10.787717 11.781018-22.453235 13.08617-34.996555 3.927006-19.866031-14.402873-39.350912-34.419054-58.443092-60.060094a18.075778 18.075778 0 0 1 1.963504-23.793037l67.452105-65.142102 249.59589-228.343857z" fill="#91613F" p-id="39868"></path><path d="M563.952732 377.08499l-67.452105 65.142102a18.075778 18.075778 0 0 0-1.963504 23.793037c19.09218 25.64104 38.57706 45.657221 58.443092 60.060094 12.54332 9.159164 24.208838 7.854012 34.996555-3.927006l56.364088-61.792597c47.470574 67.336605 92.631145 162.393254 13.860021 224.07035-39.963063 31.416049-105.220665 48.510076-128.898201 113.883179-14.322022 39.732062-12.47402 103.257161-33.726053 144.375225-21.714034 42.192216-57.022439 67.879456-105.913666 77.038621-157.657747 29.337046-312.543489-97.020152-369.254077-238.161373-34.534554-86.047635-31.531549-203.164818 58.558592-253.291896 35.689556-19.981531 92.746645-22.407035 132.478707-30.723048 117.117183-24.486038 103.834662-226.842355 265.072914-165.973759 14.322022 5.393858 43.462718 20.559032 87.433637 45.507071z m-57.63459 233.656865a94.017147 94.017147 0 1 0-188.034294 0 94.017147 94.017147 0 0 0 188.034294 0zM367.036474 828.863946a11.088017 11.088017 0 0 0-0.0231-15.684924L209.274777 655.994826a11.088017 11.088017 0 0 0-15.684924 0.03465l-27.546793 27.650743a11.088017 11.088017 0 0 0 0.0231 15.673375l157.738596 157.195746a11.088017 11.088017 0 0 0 15.673375-0.03465l27.558343-27.650744z" fill="#FFC133" p-id="39869"></path><path d="M412.300995 610.741855m-94.017147 0a94.017147 94.017147 0 1 0 188.034294 0 94.017147 94.017147 0 1 0-188.034294 0Z" fill="#664125" p-id="39870"></path><path d="M201.422583 648.171546m7.854084 7.826716l157.736195 157.186551q7.854084 7.826716 0.027368 15.6808l-27.556563 27.652922q-7.826716 7.854084-15.6808 0.027369l-157.736196-157.186551q-7.854084-7.826716-0.027368-15.680801l27.556564-27.652922q7.826716-7.854084 15.6808-0.027368Z" fill="#664125" p-id="39871"></path></svg>