<?xml version="1.0" standalone="no"?><!DOCTYPE svg PUBLIC "-//W3C//DTD SVG 1.1//EN" "http://www.w3.org/Graphics/SVG/1.1/DTD/svg11.dtd"><svg t="1759653396777" class="icon" viewBox="0 0 1024 1024" version="1.1" xmlns="http://www.w3.org/2000/svg" p-id="33832" width="16" height="16" xmlns:xlink="http://www.w3.org/1999/xlink"><path d="M573.9062059 316.83062819c0 0.68389972-0.55443723 1.23833694-1.23833695 1.23833696-0.25357763 0-0.48942454-0.07627029-0.68558837-0.20714001 0 0-0.00028144 0-0.00028142-0.00028144-0.06867142-0.04559333-0.13255833-0.09822263-0.19053504-0.15619931-0.05853957-0.05853957-0.11088743-0.12270793-0.15676219-0.19194224l-0.00028144-0.00028143C571.50495799 317.31723834 571.429532 317.08279863 571.429532 316.83062819 571.429532 316.14672848 571.98396924 315.59229126 572.66786896 315.59229126c0.18518766 0 0.3610878 0.04080883 0.51897574 0.11370183 0.08499495 0.0391202 0.16464253 0.08780935 0.23781699 0.14437883 0.02223378 0.01716786 0.04390467 0.03518003 0.06501269 0.05403654 0.01801218 0.01604211 0.03546148 0.03264707 0.05262933 0.04953347 0.01716786 0.01688642 0.03377284 0.03461713 0.04981491 0.05262931 0.0188565 0.02110802 0.03686868 0.04277891 0.05431796 0.06529414 0.05628804 0.07261158 0.1049772 0.15169628 0.14409739 0.23612833l0 0.00028144C573.86483416 316.46700745 573.9062059 316.64403334 573.9062059 316.83062819z" fill="#515151" p-id="33833"></path><path d="M856.2 407.4c-4.7 4.7-9.6 9.3-14.6 13.5-11.5 10-23.7 18.7-36.1 26.1-8 4.8-16.2 9-24.4 12.8-8.6 3.9-17.4 7.2-26.1 10-4.3 1.3-8.5 2.5-12.8 3.6-6.9 1.7-13.7 3-20.6 4-8.8 1.3-17.5 2-26.1 2-11.4 0.1-22.5-0.8-33.4-2.8-9-1.7-17.7-4.1-26.1-7.3-11.9-4.5-23.1-10.4-33.4-17.9-5.8-4.2-11.3-8.9-16.5-14.1s-9.9-10.7-14.1-16.5c-7.5-10.3-13.4-21.5-17.9-33.4-3.2-8.4-5.6-17.1-7.3-26.1-2-10.8-3-22-2.8-33.4 0.1-8.6 0.7-17.4 2-26.1 1.6-11.1 4.2-22.3 7.6-33.4 2.8-8.8 6.1-17.5 10-26.1 3.7-8.2 8-16.4 12.8-24.4 7.5-12.5 16.2-24.6 26.1-36.1 4.3-5 8.8-9.8 13.5-14.6 6.3-6.3 12.9-12.3 19.6-17.8 12.3-10.1 25.2-18.8 38.5-26.1 7-3.9 14.1-7.3 21.2-10.4 8.6-3.7 17.4-6.9 26.1-9.4 11.1-3.3 22.3-5.6 33.4-6.9 8.8-1.1 17.5-1.6 26.1-1.5 11.4 0.2 22.6 1.4 33.4 3.8 9 1.9 17.7 4.6 26.1 8.1 10.4 4.3 20.2 9.7 29.3 16.4 1.5 1.1 3 2.2 4.4 3.4 1.3 1 2.5 1.9 3.7 3 2.8 2.4 5.6 4.9 8.2 7.5 5.1 5.1 9.7 10.5 13.9 16.2 6.7 9.2 12.2 19 16.4 29.5 3.5 8.4 6.1 17.1 8.1 26.1 2.3 10.8 3.5 22 3.7 33.4 0.1 8.6-0.4 17.4-1.5 26.1-1.3 11.1-3.7 22.3-6.9 33.4-2.5 8.8-5.7 17.5-9.4 26.1-3.1 7.2-6.5 14.3-10.4 21.2-7.3 13.3-16 26.2-26.1 38.5-5.5 6.7-11.3 13.2-17.6 19.6z" fill="#FFD071" p-id="33834"></path><path d="M856.2 407.4c-4.7 4.7-9.6 9.3-14.6 13.5-11.5 10-23.7 18.7-36.1 26.1-8 4.8-16.2 9-24.4 12.8-8.6 3.9-17.4 7.2-26.1 10-4.3 1.3-8.5 2.5-12.8 3.6-6.9 1.7-13.7 3-20.6 4-8.8 1.3-17.5 2-26.1 2-11.4 0.1-22.5-0.8-33.4-2.8-9-1.7-17.7-4.1-26.1-7.3-11.9-4.5-23.1-10.4-33.4-17.9-5.8-4.2-11.3-8.9-16.5-14.1L886 137.4c5.1 5.1 9.7 10.5 13.9 16.2 6.7 9.2 12.2 19 16.4 29.5 3.5 8.4 6.1 17.1 8.1 26.1 2.3 10.8 3.5 22 3.7 33.4 0.1 8.6-0.4 17.4-1.5 26.1-1.3 11.1-3.7 22.3-6.9 33.4-2.5 8.8-5.7 17.5-9.4 26.1-3.1 7.2-6.5 14.3-10.4 21.2-7.3 13.3-16 26.2-26.1 38.5-5.5 6.6-11.3 13.1-17.6 19.5z" fill="#F9B630" p-id="33835"></path><path d="M900.1 242.5v-33.4h24.5c-1.9-9-4.6-17.7-8.1-26.1h-16.4v-29.5c-4.2-5.7-8.8-11.1-13.9-16.2h-0.1c-2.6-2.6-5.4-5.1-8.1-7.5-1.2-1-2.4-2-3.7-3-1.5-1.2-2.9-2.3-4.4-3.4h-29.4V107c-3.2-1.3-6.3-2.5-9.6-3.6h-0.1c-0.7-0.2-1.4-0.5-2-0.7-0.1 0-0.2-0.1-0.4-0.1-0.9-0.3-1.8-0.5-2.6-0.8s-1.8-0.5-2.7-0.8c-0.4-0.1-0.9-0.2-1.3-0.4s-0.9-0.2-1.3-0.4c-0.9-0.2-1.8-0.4-2.7-0.7-0.2 0-0.4-0.1-0.6-0.1-0.1 0-0.2 0-0.4-0.1l-2.4-0.6v24.4H781v-28h-7.2c-0.6 0-1.1 0-1.7 0.1-0.8 0-1.6 0.1-2.4 0.1h-0.2c-0.9 0-1.8 0.1-2.7 0.1-2 0.1-4 0.3-6 0.5l-3 0.3-3 0.3v26.7h-33.4v-19.8c-8.4 2.4-16.8 5.4-25 8.9-0.4 0.2-0.8 0.3-1.1 0.5v10.4h-21.2c-13.3 7.3-26.2 16-38.5 26.1h0.2v33.4h-33.4v-1c-0.3 0.3-0.6 0.7-0.9 1-9 10.5-16.9 21.5-23.8 32.7-0.5 0.8-1 1.6-1.4 2.3v24.4h-12.8c-0.5 1.1-1 2.2-1.4 3.2-3.3 7.5-6.2 15.2-8.6 22.9h22.8v33.4h-30.4c-0.2 1.1-0.3 2.2-0.5 3.3-0.1 1.1-0.3 2.2-0.4 3.3-0.8 6.5-1.1 13-1.1 19.4v0.2h32.5v33.4h-29.6c1.7 9 4.1 17.7 7.3 26.1h22.3v33.4H572c4.2 5.8 8.9 11.3 14.1 16.5 5.2 5.2 10.7 9.9 16.5 14.1V447H636v22.3c8.4 3.2 17.1 5.6 26.1 7.3V447h33.4v32.4c5.6-0.1 11.3-0.3 17.1-0.9 0.8-0.1 1.6-0.2 2.4-0.2 2.2-0.2 4.4-0.5 6.6-0.9V447H755v22.8c2.2-0.7 4.4-1.4 6.5-2.2l3.3-1.2 3.3-1.2c1.1-0.4 2.2-0.8 3.3-1.3 0.6-0.2 1.3-0.5 1.9-0.8 0.6-0.2 1.2-0.5 1.8-0.7 0.9-0.4 1.9-0.8 2.8-1.2 1.1-0.5 2.2-0.9 3.2-1.4V447h24.4c12-7.3 23.9-15.7 35.1-25.2 0.3-0.3 0.7-0.6 1-0.9h-1.1v-33.4h33.4V387.8c10.1-12.3 18.8-25.2 26.1-38.5v-21.2h10.4c0.2-0.6 0.5-1.1 0.7-1.7 3.4-8.1 6.3-16.3 8.7-24.4H900v-33.4h26.8c1.1-8.8 1.6-17.5 1.5-26.1h-28.2zM840.5 209h33.4v33.4h-33.4V209z m33.3-59.5v33.4h-33.4v-33.4h33.4z m-119 33.4h-33.4v-33.4h33.4v33.4z m0 26.1v33.4h-33.4V209h33.4z m-33.3 59.5h33.4v33.4h-33.4v-33.4z m59.5 0h33.4v33.4H781v-33.4z m0-26.1V209h33.4v33.4H781z m0-92.9h33.4v33.4H781v-33.4z m-119 0h33.4v33.4H662v-33.4z m33.4 59.5v33.4H662V209h33.4z m0 92.9H662v-33.4h33.4v33.4zM635.8 209v33.4h-33.4V209h33.4z m0 119v33.4h-33.4V328h33.4z m-33.3-26.1v-33.4h33.4v33.4h-33.4z m0 119v-33.4h33.4v33.4h-33.4z m92.8 0H662v-33.4h33.4l-0.1 33.4zM662 361.4V328h33.4v33.4H662z m59.5 59.5v-33.4h33.4v33.4h-33.4z m33.3-59.5h-33.4V328h33.4v33.4z m59.5 59.5H781v-33.4h33.4v33.4h-0.1z m0-59.5H781V328h33.4v33.4h-0.1z m59.5 0h-33.4V328h33.4v33.4z m-33.3-59.5v-33.4h33.4v33.4h-33.4z" fill="#767DD4" p-id="33836"></path><path d="M900.1 242.5v-33.4h24.5c-1.9-9-4.6-17.7-8.1-26.1h-16.4v-29.5c-4.2-5.7-8.8-11.1-13.9-16.2h-0.1l-12.2 12.2v33.4h-33.4l-17.7 17.6-8.5 8.5v33.4H781l-26.1 26.1v33.4h-33.4l-0.4 0.4-25.8 25.7v33.4H662l-26.1 26.1v33.4h-33.4L586 437.3c5.2 5.2 10.7 9.9 16.5 14.1V447H636v22.3c8.4 3.2 17.1 5.6 26.1 7.3V447h33.4v32.4c5.6-0.1 11.3-0.3 17.1-0.9 0.8-0.1 1.6-0.2 2.4-0.2 2.2-0.2 4.4-0.5 6.6-0.9V447H755v22.8c2.2-0.7 4.4-1.4 6.5-2.2l3.3-1.2 3.3-1.2c1.1-0.4 2.2-0.8 3.3-1.3 0.6-0.2 1.3-0.5 1.9-0.8 0.6-0.2 1.2-0.5 1.8-0.7 0.9-0.4 1.9-0.8 2.8-1.2 1.1-0.5 2.2-0.9 3.2-1.4V447h24.4c12-7.3 23.9-15.7 35.1-25.2 0.3-0.3 0.7-0.6 1-0.9h-1.1v-33.4h33.4V387.8c10.1-12.3 18.8-25.2 26.1-38.5v-21.2h10.4c0.2-0.6 0.5-1.1 0.7-1.7 3.4-8.1 6.3-16.3 8.7-24.4H900v-33.4h26.8c1.1-8.8 1.6-17.5 1.5-26.1h-28.2zM695.3 420.9H662v-33.4h33.4l-0.1 33.4zM840.5 209h33.4v33.4h-33.4V209z m-26.2 59.5v33.4H781v-33.4h33.3z m-92.8 152.4v-33.4h33.4v33.4h-33.4z m33.3-59.5h-33.4V328h33.4v33.4z m59.5 59.5H781v-33.4h33.4v33.4h-0.1z m0-59.5H781V328h33.4v33.4h-0.1z m59.5 0h-33.4V328h33.4v33.4z m-33.3-59.5v-33.4h33.4v33.4h-33.4z" fill="#5E6ACA" p-id="33837"></path><path d="M675 497.3l-30.4 28.8-30.8 29.2-230.9 214.4h-0.1L342.5 808l-0.1 0.1-40.4 38.3-33.8 32.1c-24.4-16.2-47.1-34.9-67.7-55.5-20.8-20.8-39.4-43.6-55.7-68.2l-0.1-0.1 31.8-33.5 38.3-40.4 38.3-40.4 272.4-292.2c5-5.3 12.1-7.4 18.7-6.3 4.3 0.7 8.4 2.7 11.7 6l13.8 13.8 32.7 32.7 13.5 13.5 13.5 13.5L662 454l13.4 13.4c3.4 3.4 5.4 7.7 6 12.1 1 6-1.2 12.9-6.4 17.8z" fill="#F473C3" p-id="33838"></path><path d="M675 497.3l-30.4 28.8-30.8 29.2-230.9 214.4h-0.1L342.5 808l-0.1 0.1-40.4 38.3-33.8 32.1c-24.4-16.2-47.1-34.9-67.7-55.5l39-39 39.4-39.4 39.4-39.3 143-143 124.7-125 16.4-16.4 13.5-13.5 13.5 13.5 32.6 32.6 13.4 13.4c3.4 3.4 5.4 7.7 6 12.1 1 6.5-1.2 13.4-6.4 18.3z" fill="#C640A6" p-id="33839"></path><path d="M551.2 531.9l-30 30c-16.5 16.5-43.2 16.6-59.8 0.1l-0.1-0.1c-16.6-16.6-16.6-43.5 0-60l30-30c16.6-16.6 43.5-16.6 60 0l0.1 0.1c16.4 16.7 16.3 43.5-0.2 59.9z" fill="#FFD071" p-id="33840"></path><path d="M871 422.2c-8.3 8.3-21.7 8.3-30 0L600.9 182.1c-8.3-8.3-8.3-21.7 0-30s21.7-8.3 30 0L871 392.2c8.3 8.3 8.3 21.8 0 30zM382.9 769.7L342.6 808l-63.7-63.6-63.9-63.8 38.4-40.4 64.9 64.9zM302.2 846.4l-33.8 32-6.6 6.3-0.1-0.1 6.6-6.2c-24.4-16.2-47.1-34.9-67.7-55.5-20.8-20.8-39.4-43.6-55.7-68.2l31.9-33.6 62.8 62.8 62.6 62.5z" fill="#F9F7FC" p-id="33841"></path><path d="M461.3 562l90-90c16.5 16.6 16.4 43.4-0.1 59.9l-30 30c-16.6 16.6-43.3 16.6-59.9 0.1z" fill="#F9B630" p-id="33842"></path><path d="M302.2 846.4l-33.8 32-6.6 6.3-0.1-0.1 6.6-6.2c-24.4-16.2-47.1-34.9-67.7-55.5l39-39 62.6 62.5zM382.9 769.7L342.6 808l-63.7-63.6 39.4-39.3zM871 422.2c-8.3 8.3-21.7 8.3-30 0L721.1 302.3l30-30L871 392.2c8.3 8.3 8.3 21.8 0 30z" fill="#DCDAEB" p-id="33843"></path><path d="M933.1 242.4c-0.2-11.9-1.5-23.5-3.8-34.4-2.2-9.9-4.9-18.7-8.3-26.9-4.3-10.7-10-21-17-30.6-4.4-6-9.3-11.6-14.4-16.8-2.3-2.3-5-4.8-8.4-7.7-1.2-1.1-2.4-2-3.6-2.9l-0.3-0.2c-1.5-1.3-3.1-2.4-4.6-3.5-9.1-6.7-19.3-12.4-30.3-17-8.6-3.6-17.7-6.4-26.9-8.4-10.7-2.4-22.3-3.7-34.4-3.9-8.8-0.1-17.8 0.4-26.7 1.5-11.4 1.3-23 3.7-34.2 7.1-8.3 2.4-16.9 5.4-25.5 9.1-0.3 0.1-0.6 0.2-0.8 0.3l-0.4 0.2c-8 3.5-15.1 7-21.6 10.6-13.7 7.5-26.9 16.5-39.3 26.6-0.3 0.2-0.5 0.4-0.8 0.6-4.5-3.4-10-5.3-15.8-5.3-7 0-13.6 2.7-18.5 7.7-5 5-7.7 11.5-7.7 18.5 0 5.8 1.9 11.3 5.3 15.8-8.4 10.2-16.1 21.1-22.9 32.4-4.9 8.1-9.3 16.5-13.1 24.9-3.8 8.5-7.3 17.5-10.2 26.7-3.6 11.6-6.2 23.1-7.8 34.1-1.3 8.4-1.9 17.4-2.1 26.8-0.1 2.9 0 5.9 0.1 8.9-6.5 0.4-12.7 3.3-17.2 8.1L249.5 637l-76.6 80.8-31.8 33.5c-1.8 1.9-1.8 4.7-0.2 6.6 16.4 24.7 35.3 47.8 56.1 68.6 19.6 19.6 40.8 37.2 63.2 52.6l-1.9 1.8c-1 0.9-1.6 2.2-1.6 3.6 0 1.3 0.5 2.7 1.4 3.6l0.1 0.1c1 1 2.3 1.5 3.6 1.5 1.2 0 2.5-0.5 3.5-1.4l6.6-6.3 33.8-32c0.3-0.3 0.5-0.6 0.7-0.9l39.2-37.1c0.2-0.1 0.4-0.3 0.5-0.4l40.3-38.3 230.9-214.4 61.2-58c4.7-4.5 7.6-10.5 8.1-16.7 2.4 0.1 4.8 0.1 7.3 0.1h1.7c8.6 0 17.6-0.7 26.8-2.1 7.3-1.1 14.2-2.4 21.1-4.1 4-1 8.2-2.2 13.1-3.7 9.4-3 18.4-6.5 26.7-10.2 9.2-4.3 17.4-8.5 24.9-13 11.5-6.8 22.4-14.5 32.5-22.9 4.6 3.4 10 5 15.5 5 6.7 0 13.4-2.6 18.5-7.7 4.9-4.9 7.7-11.4 7.7-18.4 0-5.7-1.8-11.2-5.1-15.7 0.2-0.2 0.4-0.4 0.6-0.7 10.1-12.3 19.1-25.6 26.6-39.2 3.7-6.5 7.2-13.6 10.7-21.7l0.2-0.4c0.2-0.4 0.3-0.8 0.5-1.1 3.6-8.6 6.7-17 8.9-25.1 3.4-11.8 5.8-23.4 7.1-34.2 0.8-8.8 1.3-17.8 1.2-26.7zM342.6 801L222 680.5l31.5-33.1 122.2 122.2-33.1 31.4z m-47.7 45.3L267.8 872c-22.6-15.3-44-33-63.6-52.7-19.5-19.5-37.3-41.1-52.9-64.1l25.6-27 118 118.1z m7.2-6.9L183.7 720.9l31.4-33.1 120.3 120.1-33.3 31.5z m369.5-345.7l-61.2 58L383 762.8 260.3 640l268.8-288.4c3.7-3.9 9-5.7 14.2-4.8h0.1c3.4 0.6 6.5 2.1 8.9 4.6l119.5 119.5c2.5 2.5 4.1 5.8 4.6 9.2v0.1c0.8 4.8-1 9.9-4.8 13.5z m131.3-51c-7.2 4.3-15 8.4-23.9 12.5-7.9 3.6-16.5 6.9-25.5 9.8-4.7 1.4-8.7 2.5-12.5 3.5-6.6 1.6-13.2 2.9-20.1 3.9-8.7 1.3-17.3 1.9-25.4 1.9-3.4 0-6.9 0-10.2-0.2-1.3-3.9-3.4-7.4-6.3-10.3L559.4 344.4c-2.9-2.9-6.4-5.1-10.3-6.4-0.1-3.3-0.2-6.7-0.1-10 0.1-8.9 0.8-17.5 1.9-25.4 1.5-10.5 4-21.5 7.4-32.6 2.8-8.8 6.1-17.4 9.8-25.6 3.6-8 7.8-16.1 12.5-23.9 6.3-10.5 13.5-20.7 21.3-30.2l231.2 231.2c-9.4 7.7-19.5 14.8-30.2 21.2z m64.6-24.1c0 0.1 0 0.1 0 0-6.3 6.3-16.6 6.3-23 0l-240.1-240c-3.1-3.1-4.8-7.1-4.8-11.5 0-4.3 1.7-8.4 4.8-11.5 3.1-3.1 7.1-4.8 11.5-4.8 4.3 0 8.4 1.7 11.5 4.8l240.1 240.1c3.1 3.1 4.8 7.2 4.8 11.6-0.1 4.3-1.8 8.3-4.8 11.3zM921.6 268c-1.2 10.3-3.5 21.3-6.7 32.6-2.2 7.7-5.1 15.7-8.6 24-0.1 0.3-0.3 0.7-0.4 1l-0.2 0.4c-3.3 7.7-6.7 14.5-10.2 20.8-7.2 13.1-15.7 25.6-25.3 37.4L639 153.1c11.8-9.7 24.4-18.2 37.6-25.4 6.2-3.5 13-6.8 20.7-10.2l0.4-0.2 0.6-0.3s0.1 0 0.1-0.1c8.3-3.5 16.5-6.4 24.4-8.7 10.7-3.2 21.7-5.5 32.6-6.7 8.5-1.1 17.1-1.6 25.4-1.5 11.4 0.2 22.3 1.4 32.5 3.7 8.7 1.8 17.1 4.5 25.2 7.8 10.3 4.2 19.8 9.6 28.3 15.8 1.5 1.1 2.8 2.1 4.1 3.2l0.2 0.2 0.4 0.3c1.1 0.8 2.1 1.6 3 2.4l0.1 0.1c3.2 2.8 5.8 5.1 7.9 7.2 4.8 4.8 9.3 10 13.4 15.6 6.5 9 11.8 18.5 15.8 28.5 3.2 7.7 5.8 15.9 7.8 25.2 2.2 10.3 3.4 21.2 3.6 32.4 0.1 8.6-0.4 17.1-1.5 25.6z" fill="#515151" p-id="33844"></path><path d="M554.8 468.4c-8.9-9-20.8-13.9-33.4-13.9h-0.1c-12.7 0-24.6 4.9-33.6 13.9l-30 30c-9 8.9-13.9 20.8-13.9 33.4 0 12.7 4.9 24.7 13.9 33.7l0.1 0.1c9.2 9.2 21.3 13.7 33.4 13.7 12.1 0 24.3-4.6 33.5-13.8l30-30c18.4-18.4 18.5-48.4 0.1-67.1z m-7.1 60l-30 30c-14.5 14.5-38.2 14.6-52.7 0.1l-0.1-0.1c-7.1-7.1-11-16.5-11-26.6 0-10 3.9-19.3 11-26.4l30-30c7.1-7.1 16.5-11 26.5-11h0.1c10 0 19.3 3.9 26.4 11l0.1 0.1c14.3 14.7 14.2 38.4-0.3 52.9z" fill="#FFFFFF" p-id="33845"></path><path d="M572.66786896 318.12525319c-0.25582915 0-0.5032151-0.07458166-0.71542103-0.21558322-0.00028144 0-0.00056287-0.00028144-0.00056288-0.00028142-0.0014072-0.00084433-0.00253297-0.00168863-0.00394017-0.00281443-0.06979718-0.04671907-0.13593562-0.10103704-0.19644526-0.16126522-0.03039555-0.03039555-0.05966532-0.06276117-0.08696503-0.09625255-0.02673682-0.03264707-0.05206644-0.06726422-0.07570742-0.10244424-0.00056287-0.00084433-0.00112577-0.00168863-0.00168862-0.00225153C571.44726273 317.33215467 571.37324396 317.08533159 571.37324396 316.83062819c0-0.17477438 0.0343357-0.34420138 0.10188136-0.50405941 0.06529413-0.15422924 0.15845084-0.29269783 0.27750005-0.4114656 0.11876776-0.11876776 0.25723637-0.21220593 0.4114656-0.27750006C572.32366757 315.57033892 572.49309458 315.5360032 572.66786896 315.5360032c0.03095843 0 0.05628804 0.02532961 0.05628803 0.05628806s-0.02532961 0.05628804-0.05628803 0.05628805c-0.1595766 0-0.31436871 0.03123986-0.46015476 0.09287526-0.14072011 0.05966532-0.26708676 0.14466027-0.37572268 0.25329619s-0.19391229 0.23500258-0.25329621 0.3757227C571.51705992 316.51625949 571.48582006 316.67105159 571.48582006 316.83062819c0 0.23190672 0.06726422 0.45621458 0.19419374 0.64928257l0.00168863 0.00253297c0.0216709 0.03264707 0.04531188 0.06473125 0.07007863 0.09512681 0.02476675 0.03039555 0.05150357 0.05994678 0.07936614 0.08780933 0.05600661 0.05600661 0.11707913 0.10610296 0.18181037 0.14916332l0.00253295 0.00168865C572.20912141 317.94485001 572.43455502 318.01267709 572.66786896 318.01267709c0.1595766 0 0.31436871-0.03123986 0.46015474-0.09287527 0.14072011-0.05966532 0.26708676-0.14466027 0.37572268-0.25329617 0.10863593-0.10863593 0.19391229-0.23500258 0.2532962-0.3757227 0.06163539-0.14578602 0.09287528-0.30057815 0.09287527-0.46015476 0-0.03095843 0.02532961-0.05628804 0.05628805-0.05628803s0.05628804 0.02532961 0.05628805 0.05628803c0 0.17477438-0.0343357 0.34420138-0.10188137 0.50405943-0.06529413 0.15422924-0.15845084 0.29269783-0.27750005 0.41146559-0.11876776 0.11876776-0.25723637 0.21220593-0.41146559 0.27750007-0.1595766 0.06726422-0.32900362 0.10159992-0.50377798 0.10159991zM571.98256201 317.8055371z m0 0z m-0.00028142 0z" fill="#515151" p-id="33846"></path></svg>