<?xml version="1.0" standalone="no"?><!DOCTYPE svg PUBLIC "-//W3C//DTD SVG 1.1//EN" "http://www.w3.org/Graphics/SVG/1.1/DTD/svg11.dtd"><svg t="1759654073954" class="icon" viewBox="0 0 1024 1024" version="1.1" xmlns="http://www.w3.org/2000/svg" p-id="55375" xmlns:xlink="http://www.w3.org/1999/xlink" width="16" height="16"><path d="M80 434.816H48a8 8 0 0 1 0-16h32a8 8 0 0 1 0 16zM312 434.816H112a8 8 0 0 1 0-16h200a8 8 0 0 1 0 16zM976 674.816h-32a8 8 0 0 1 0-16h32a8 8 0 0 1 0 16zM912 674.816H712a8 8 0 0 1 0-16H912a8 8 0 0 1 0 16zM819.584 922.816a8 8 0 0 1-8-8v-104a8.016 8.016 0 0 1 10.976-7.424l40 16a8 8 0 0 1 5.024 7.424v32a8 8 0 0 1-16 0v-26.592l-24-9.6v92.192a8 8 0 0 1-8 8z" fill="#263238" p-id="55376"></path><path d="M739.584 914.816a40 24 0 1 0 80 0 40 24 0 1 0-80 0Z" fill="#4DB6AC" p-id="55377"></path><path d="M779.584 946.816c-26.912 0-48-14.048-48-32s21.088-32 48-32 48 14.048 48 32-21.088 32-48 32z m0-48c-18.32 0-32 8.448-32 16s13.68 16 32 16 32-8.448 32-16-13.68-16-32-16zM315.584 224a8 8 0 0 1-8-8V32a8 8 0 0 1 11.264-7.312l72 32a8 8 0 0 1 4.736 7.312v56a8.016 8.016 0 0 1-10.976 7.424l-40-16a8.016 8.016 0 0 1 5.936-14.864l29.024 11.616V69.2l-56-24.88V216a7.984 7.984 0 0 1-7.984 8z" fill="#263238" p-id="55378"></path><path d="M187.584 216a64 40 0 1 0 128 0 64 40 0 1 0-128 0Z" fill="#FF5252" p-id="55379"></path><path d="M251.584 264c-40.368 0-72-21.088-72-48s31.632-48 72-48 72 21.088 72 48-31.616 48-72 48z m0-80c-30.352 0-56 14.656-56 32s25.648 32 56 32 56-14.656 56-32-25.648-32-56-32z" fill="#263238" p-id="55380"></path><path d="M680.208 357.632m-176 0a176 176 0 1 0 352 0 176 176 0 1 0-352 0Z" fill="#FFD740" p-id="55381"></path><path d="M680.208 541.632a182.768 182.768 0 0 1-130.096-53.888c-34.752-34.752-53.904-80.96-53.904-130.096s19.136-95.36 53.904-130.112c34.752-34.752 80.96-53.904 130.096-53.904s95.36 19.136 130.112 53.904c34.752 34.752 53.888 80.96 53.888 130.112s-19.136 95.344-53.888 130.096a182.832 182.832 0 0 1-130.112 53.888z m0-352a166.816 166.816 0 0 0-118.784 49.216c-31.728 31.728-49.216 73.92-49.216 118.8s17.472 87.056 49.216 118.784c31.728 31.728 73.92 49.2 118.784 49.2s87.056-17.472 118.8-49.2c31.728-31.728 49.2-73.92 49.2-118.784s-17.472-87.056-49.2-118.8-73.936-49.216-118.8-49.216z" fill="#263238" p-id="55382"></path><path d="M288.784 840.064a47.84 47.84 0 0 1-33.952-14.032l-43.024-43.024a48.064 48.064 0 0 1-2.048-65.696l291.84-330.72a8.016 8.016 0 0 1 13.84 3.744c6.448 32.688 22.352 62.464 45.984 86.096s53.392 39.52 86.08 45.984a8.016 8.016 0 0 1 3.744 13.84l-330.72 291.84c-9.072 8-20.416 11.968-31.744 11.968z m214.64-431.392L221.744 727.904c-11.152 12.64-10.56 31.872 1.36 43.792l43.024 43.024a32.032 32.032 0 0 0 43.808 1.36L629.152 534.4c-29.808-8.56-56.896-24.512-79.04-46.672S512 438.496 503.424 408.672z" fill="#263238" p-id="55383"></path><path d="M776.368 510.368L527.472 261.456a15.984 15.984 0 0 1 0-22.624l33.936-33.936a15.984 15.984 0 0 1 22.624 0l248.896 248.896a15.984 15.984 0 0 1 0 22.624l-33.936 33.936a16 16 0 0 1-22.624 0.016z" fill="#FFFFFF" p-id="55384"></path><path d="M787.68 523.04c-6.144 0-12.288-2.336-16.96-7.008L521.808 267.12a24.048 24.048 0 0 1 0-33.936l33.952-33.952a24.064 24.064 0 0 1 33.936 0l248.896 248.912a24.016 24.016 0 0 1 0 33.936l-33.936 33.952a23.952 23.952 0 0 1-16.976 7.008zM572.72 208.208a8.032 8.032 0 0 0-5.664 2.336l-33.952 33.936a8.032 8.032 0 0 0 0 11.312l248.896 248.912a8.016 8.016 0 0 0 11.312 0l33.936-33.936a8 8 0 0 0 0-11.312L578.384 210.544a8 8 0 0 0-5.664-2.336z" fill="#263238" p-id="55385"></path><path d="M431.312 629.152l-22.624-22.624a15.984 15.984 0 0 1 0-22.624l67.888-67.888a15.984 15.984 0 0 1 22.624 0l22.624 22.624a15.984 15.984 0 0 1 0 22.624l-67.888 67.888a15.984 15.984 0 0 1-22.624 0z" fill="#40C4FF" p-id="55386"></path><path d="M442.624 641.824c-6.144 0-12.288-2.336-16.976-7.008l-22.624-22.624a23.84 23.84 0 0 1-7.024-16.976c0-6.416 2.496-12.448 7.024-16.976l67.888-67.872c9.04-9.056 24.88-9.072 33.936 0l22.624 22.624c4.528 4.528 7.024 10.56 7.024 16.976 0 6.416-2.496 12.448-7.024 16.976l-67.888 67.872a23.904 23.904 0 0 1-16.96 7.008z m45.248-122.496a7.92 7.92 0 0 0-5.648 2.336l-67.888 67.888a8.016 8.016 0 0 0 0 11.328l22.624 22.624a8 8 0 0 0 11.312 0l67.888-67.888a8.016 8.016 0 0 0 0-11.328l-22.624-22.624a8.08 8.08 0 0 0-5.664-2.336z" fill="#263238" p-id="55387"></path><path d="M238.976 1000a87.424 87.424 0 0 1-62.224-25.776C160.128 957.6 150.976 935.504 150.976 912s9.152-45.616 25.776-62.224l56.56-56.56a8 8 0 0 1 11.312 11.312l-56.56 56.56a72.096 72.096 0 0 0 0 101.824 71.52 71.52 0 0 0 50.912 21.088 71.52 71.52 0 0 0 50.912-21.088l113.136-113.136a88.096 88.096 0 0 1 124.448 0l56.576 56.576a8 8 0 0 1-11.312 11.312l-56.576-56.576a72.08 72.08 0 0 0-101.824 0l-113.136 113.136a87.424 87.424 0 0 1-62.224 25.776z" fill="#263238" p-id="55388"></path></svg>